<svg height="512" viewBox="0 0 64 64" width="512" xmlns="http://www.w3.org/2000/svg"><g id="Artboard_21" data-name="Artboard 21"><path d="m26 16a12 12 0 1 0 12 12 12.013 12.013 0 0 0 -12-12zm0 22a10 10 0 1 1 10-10 10.011 10.011 0 0 1 -10 10z"/><path d="m24.845 30.431-3.138-3.138-1.414 1.414 4 4a1 1 0 0 0 .707.293c.033 0 .065 0 .1-.005a1 1 0 0 0 .733-.44l6-9-1.664-1.11z"/><path d="m9 5h32v2h-32z"/><path d="m9 9h31.999v2h-31.999z"/><path d="m60 13a5.006 5.006 0 0 0 -5-5h-7v-2a4.98 4.98 0 0 0 -4.95-5h-36a5.006 5.006 0 0 0 -5 5v52a5.006 5.006 0 0 0 5 5h36a4.961 4.961 0 0 0 4.912-4.62l2.931 2.931a5.993 5.993 0 0 0 4.174 1.679 5.913 5.913 0 0 0 4.933-9.214zm-5-3a3 3 0 0 1 3 3v38.594l-9.739-9.738c-.082-.074-.173-.132-.261-.2v-3.656h6v-2h-6v-2h6v-2h-6v-2h6v-2h-6v-2h6v-2h-6v-2h6v-2h-6v-2h6v-2h-6v-6zm-9 48a2.943 2.943 0 0 1 -2.95 3h-36a3 3 0 0 1 -3-3v-52a3 3 0 0 1 3-3h36a2.943 2.943 0 0 1 2.95 3v35.011a3.62 3.62 0 0 0 -1.965.61l-4.743-4.742a15.82 15.82 0 0 0 2.708-8.879 16 16 0 1 0 -16 16 15.829 15.829 0 0 0 8.878-2.707l3.708 3.707h-29.586v2h30.149a3.624 3.624 0 0 0 .011 2h-30.16v2h31.582l5.418 5.418zm-5-13.413-5.3-5.306a1 1 0 0 0 -1.307-.093 13.865 13.865 0 0 1 -8.393 2.812 14 14 0 1 1 14-14 13.867 13.867 0 0 1 -2.812 8.388 1 1 0 0 0 .093 1.307l5.306 5.305zm16.853 15.265a3.99 3.99 0 0 1 -5.559.033l-10.961-10.961a1.575 1.575 0 0 1 -.157-1.683l3.962-3.963a1.425 1.425 0 0 1 1.743.026l10.982 10.982a3.976 3.976 0 0 1 -.01 5.566z"/><path d="m9 53h32v2h-32z"/><path d="m9 57h32v2h-32z"/></g></svg>