<svg viewBox="0 -32 512 512" xmlns="http://www.w3.org/2000/svg"><path d="m395.71875 60.609375c-43.773438-39.082031-101.917969-60.609375-163.71875-60.609375s-119.945312 21.527344-163.71875 60.609375c-44.03125 39.316406-68.28125 91.660156-68.28125 147.390625 0 33.269531 8.976562 66.359375 25.953125 95.691406 15.339844 26.5 37.234375 50.0625 63.566406 68.46875l-24.984375 64.96875c-2.5625 6.65625 4.636719 13.230469 11.042969 10.027344l83.375-41.6875c23.519531 6.988281 48.078125 10.53125 73.046875 10.53125 61.800781 0 119.945312-21.523438 163.71875-60.609375 44.03125-39.316406 68.28125-91.660156 68.28125-147.390625s-24.25-108.074219-68.28125-147.390625zm0 0" fill="#8cdc91"/><path d="m256 208c0 13.253906-10.746094 24-24 24s-24-10.746094-24-24 10.746094-24 24-24 24 10.746094 24 24zm0 0" fill="#f4f5f7"/><path d="m232 240c-17.644531 0-32-14.355469-32-32s14.355469-32 32-32 32 14.355469 32 32-14.355469 32-32 32zm0-48c-8.820312 0-16 7.179688-16 16s7.179688 16 16 16 16-7.179688 16-16-7.179688-16-16-16zm0 0" fill="#3fc448"/><path d="m352 208c0 13.253906-10.746094 24-24 24s-24-10.746094-24-24 10.746094-24 24-24 24 10.746094 24 24zm0 0" fill="#f4f5f7"/><path d="m328 240c-17.644531 0-32-14.355469-32-32s14.355469-32 32-32 32 14.355469 32 32-14.355469 32-32 32zm0-48c-8.820312 0-16 7.179688-16 16s7.179688 16 16 16 16-7.179688 16-16-7.179688-16-16-16zm0 0" fill="#3fc448"/><path d="m160 208c0 13.253906-10.746094 24-24 24s-24-10.746094-24-24 10.746094-24 24-24 24 10.746094 24 24zm0 0" fill="#f4f5f7"/><path d="m136 240c-17.644531 0-32-14.355469-32-32s14.355469-32 32-32 32 14.355469 32 32-14.355469 32-32 32zm0-48c-8.820312 0-16 7.179688-16 16s7.179688 16 16 16 16-7.179688 16-16-7.179688-16-16-16zm0 0" fill="#3fc448"/><path d="m256 392c-128.128906 0-232-93.125-232-208 0-47.585938 17.835938-91.429688 47.824219-126.480469-1.1875 1.019531-2.375 2.046875-3.546875 3.089844-44.027344 39.316406-68.277344 91.660156-68.277344 147.390625 0 33.269531 8.976562 66.359375 25.953125 95.691406 15.339844 26.5 37.234375 50.0625 63.566406 68.46875l-24.984375 64.96875c-2.5625 6.65625 4.636719 13.230469 11.042969 10.027344l83.375-41.6875c23.519531 6.988281 48.078125 10.53125 73.046875 10.53125 61.800781 0 119.945312-21.523438 163.71875-60.609375 7.484375-6.679687 14.378906-13.746094 20.695312-21.132813-41.664062 35.765626-98.175781 57.742188-160.414062 57.742188zm0 0" fill="#78d67f"/><path d="m440 56c-39.699219 0-72 32.300781-72 72s32.300781 72 72 72 72-32.300781 72-72-32.300781-72-72-72zm0 0" fill="#f5e063"/><path d="m464 184c-39.699219 0-72-32.300781-72-72 0-19.757812 8.003906-37.679688 20.933594-50.703125-26.324219 10.722656-44.933594 36.574219-44.933594 66.703125 0 39.699219 32.300781 72 72 72 19.941406 0 38.015625-8.152344 51.066406-21.296875-8.363281 3.402344-17.496094 5.296875-27.066406 5.296875zm0 0" fill="#f2d83d"/><path d="m440 160c-4.417969 0-8-3.582031-8-8v-28.6875l-2.34375 2.34375c-3.125 3.125-8.1875 3.125-11.3125 0s-3.125-8.1875 0-11.3125l16-16c2.289062-2.289062 5.730469-2.976562 8.71875-1.734375 2.988281 1.238281 4.9375 4.15625 4.9375 7.390625v48c0 4.417969-3.582031 8-8 8zm0 0" fill="#f4f5f7"/></svg>