<svg id="Capa_1" enable-background="new 0 0 510.23 510.23" height="512" viewBox="0 0 510.23 510.23" width="512" xmlns="http://www.w3.org/2000/svg"><g><path d="m510.115 421v-315h-127.23c-11.292-60.256-64.286-106-127.77-106s-116.477 45.744-127.77 106h-127.23v315h210v34.189l-79.743 26.581 9.486 28.461 87.692-29.231h55.131l87.691 29.23 9.486-28.461-79.743-26.581v-34.188zm-60-30v-30h30v30zm-180.96-277.75 8.677 26.704-22.716 16.505-22.716-16.505 8.677-26.704zm-57.026 49.059 27.986 20.334v46.232c-31.74-4.795-58.631-24.564-73.234-51.855zm57.986 20.334 27.987-20.334 45.25 14.704c-14.602 27.295-41.495 47.067-73.237 51.862zm83.236-33.925-45.984-14.942-10.687-32.891 29.731-40.929c23.368 23.781 32.998 56.905 26.94 88.762zm-50.92-106.795-30.02 41.327h-34.6l-30.019-41.323c29.312-15.813 64.978-16.003 94.639-.004zm-118.618 18.038 29.734 40.932-10.685 32.885-45.982 14.948c-6.046-31.789 3.522-64.935 26.933-88.765zm-58.554 76.039c3.146 68.908 60.186 124 129.856 124s126.71-55.092 129.856-124h95.144v195h-450v-195zm-95.144 255v-30h390v30zm240 60h-30v-30h30z"/></g></svg>