<svg height="480pt" viewBox="0 0 480 480" width="480pt" xmlns="http://www.w3.org/2000/svg"><path d="m16 288h96v48h-96zm0 0" fill="#ea348b"/><path d="m368 416h96v48h-96zm0 0" fill="#acabb1"/><path d="m16 416h96v48h-96zm0 0" fill="#acabb1"/><path d="m192 288h96v48h-96zm0 0" fill="#ea348b"/><path d="m368 288h96v48h-96zm0 0" fill="#ea348b"/><path d="m192 16h96v48h-96zm0 0" fill="#64c37d"/><path d="m192 144h96v48h-96zm0 0" fill="#d80027"/><path d="m192 416h96v48h-96zm0 0" fill="#acabb1"/><path d="m360 272c-4.417969 0-8 3.582031-8 8v64c0 4.417969 3.582031 8 8 8h112c4.417969 0 8-3.582031 8-8v-64c0-4.417969-3.582031-8-8-8h-48v-24c0-4.417969-3.582031-8-8-8h-168v-32h48c4.417969 0 8-3.582031 8-8v-64c0-4.417969-3.582031-8-8-8h-48v-48h48c4.417969 0 8-3.582031 8-8v-64c0-4.417969-3.582031-8-8-8h-112c-4.417969 0-8 3.582031-8 8v64c0 4.417969 3.582031 8 8 8h48v48h-48c-4.417969 0-8 3.582031-8 8v64c0 4.417969 3.582031 8 8 8h48v32h-168c-4.417969 0-8 3.582031-8 8v24h-48c-4.417969 0-8 3.582031-8 8v64c0 4.417969 3.582031 8 8 8h112c4.417969 0 8-3.582031 8-8v-64c0-4.417969-3.582031-8-8-8h-48v-16h160v16h-48c-4.417969 0-8 3.582031-8 8v64c0 4.417969 3.582031 8 8 8h48v16h-168c-4.417969 0-8 3.582031-8 8v24h-48c-4.417969 0-8 3.582031-8 8v64c0 4.417969 3.582031 8 8 8h112c4.417969 0 8-3.582031 8-8v-64c0-4.417969-3.582031-8-8-8h-48v-16h160v16h-48c-4.417969 0-8 3.582031-8 8v64c0 4.417969 3.582031 8 8 8h112c4.417969 0 8-3.582031 8-8v-64c0-4.417969-3.582031-8-8-8h-48v-16h160v16h-48c-4.417969 0-8 3.582031-8 8v64c0 4.417969 3.582031 8 8 8h112c4.417969 0 8-3.582031 8-8v-64c0-4.417969-3.582031-8-8-8h-48v-24c0-4.417969-3.582031-8-8-8h-168v-16h48c4.417969 0 8-3.582031 8-8v-64c0-4.417969-3.582031-8-8-8h-48v-16h160v16zm-168-256h96v48h-96zm0 128h96v48h-96zm-80 192h-96v-48h96zm0 128h-96v-48h96zm176 0h-96v-48h96zm176 0h-96v-48h96zm-176-128h-96v-48h96zm176 0h-96v-48h96zm0 0"/></svg>