<svg id="Capa_1" enable-background="new 0 0 512 512" height="512" viewBox="0 0 512 512" width="512" xmlns="http://www.w3.org/2000/svg"><g><path d="m512 87.926c0-3.978-1.58-7.793-4.394-10.606l-42.426-42.427c-5.857-5.857-15.355-5.858-21.213 0l-56.607 56.607h-312.36c-41.355 0-75 33.645-75 75v180c0 36.219 25.81 66.524 60 73.493v46.507c0 8.284 6.716 15 15 15 36.219 0 66.523-25.809 73.493-60h227.507c41.355 0 75-33.645 75-75v-191.361c8.876-8.876 50.047-50.047 56.606-56.606 2.814-2.813 4.394-6.629 4.394-10.607zm-216.805 180.592c-20.883 20.883-45.43 37.967-73.259 51.019 12.873-26.286 30.298-50.484 52.046-72.233l137.165-137.165 21.213 21.214c-5.393 5.393-125.361 125.362-137.165 137.165zm125.805 77.982c0 24.813-20.187 45-45 45h-241c-8.284 0-15 6.716-15 15 0 19.556-12.539 36.239-30 42.43v-42.43c0-8.284-6.716-15-15-15-24.813 0-45-20.187-45-45v-180c0-24.813 20.187-45 45-45h282.361l-104.591 104.591c-30.88 30.88-53.926 66.299-68.628 105.409h-108.142c-8.284 0-15 6.716-15 15s6.716 15 15 15h118.72.01c1.581 0 3.405-.322 4.741-.77 45.723-15.241 85.066-39.128 116.937-71l104.592-104.591zm32.573-236.36-21.213-21.214 22.213-22.213 21.214 21.213z"/><path d="m76 241.5h90c8.284 0 15-6.716 15-15s-6.716-15-15-15h-90c-8.284 0-15 6.716-15 15s6.716 15 15 15z"/><path d="m76 301.5h90c8.284 0 15-6.716 15-15s-6.716-15-15-15h-90c-8.284 0-15 6.716-15 15s6.716 15 15 15z"/><path d="m76 181.5h90c8.284 0 15-6.716 15-15s-6.716-15-15-15h-90c-8.284 0-15 6.716-15 15s6.716 15 15 15z"/></g></svg>